<svg width="211" height="211" viewBox="0 0 211 211" fill="none" xmlns="http://www.w3.org/2000/svg">
<path d="M146.353 210.931H64.578C28.969 210.931 0 181.961 0 146.353V64.578C0 28.969 28.97 0 64.578 0H146.353C181.964 0 210.933 28.97 210.933 64.578V146.353C210.934 181.961 181.964 210.931 146.353 210.931ZM64.579 15.793C37.68 15.793 15.795 37.678 15.795 64.577V146.352C15.795 173.251 37.68 195.136 64.579 195.136H146.354C173.255 195.136 195.14 173.251 195.14 146.352V64.577C195.14 37.678 173.255 15.793 146.354 15.793H64.579Z" fill="white"/>
<path d="M105.466 158.823C76.045 158.823 52.111 134.887 52.111 105.466C52.111 76.0454 76.045 52.1094 105.466 52.1094C134.887 52.1094 158.823 76.0454 158.823 105.466C158.823 134.887 134.886 158.823 105.466 158.823ZM105.466 68.2834C84.965 68.2834 68.285 84.9634 68.285 105.466C68.285 125.969 84.965 142.649 105.466 142.649C125.969 142.649 142.649 125.969 142.649 105.466C142.649 84.9634 125.969 68.2834 105.466 68.2834Z" fill="white"/>
<path d="M178.346 48.5221C179.569 40.9479 174.421 33.8158 166.847 32.5921C159.273 31.3684 152.141 36.5164 150.917 44.0905C149.694 51.6646 154.842 58.7967 162.416 60.0205C169.99 61.2442 177.122 56.0962 178.346 48.5221Z" fill="white"/>
</svg>
