<svg width="91" height="91" viewBox="0 0 91 91" fill="none" xmlns="http://www.w3.org/2000/svg">
<path d="M45.197 8.34375C24.837 8.34375 8.33704 24.8437 8.33704 45.1937C8.33704 65.5537 24.837 82.0537 45.197 82.0537C65.547 82.0537 82.057 65.5537 82.057 45.1937C82.057 24.8437 65.547 8.34375 45.197 8.34375ZM61.607 51.8538C61.607 57.2438 57.237 61.6137 51.857 61.6137H38.537C33.147 61.6137 28.787 57.2438 28.787 51.8538V38.5438C28.787 33.1538 33.147 28.7837 38.537 28.7837H51.857C57.237 28.7837 61.607 33.1538 61.607 38.5438V51.8538Z" fill="white"/>
<path d="M45.196 3.526C68.173 3.526 86.866 22.219 86.866 45.196C86.866 68.173 68.173 86.866 45.196 86.866C22.219 86.866 3.526 68.173 3.526 45.196C3.526 22.219 22.219 3.526 45.196 3.526ZM45.196 0C20.235 0 0 20.235 0 45.196C0 70.157 20.235 90.392 45.196 90.392C70.157 90.392 90.392 70.157 90.392 45.196C90.392 20.235 70.157 0 45.196 0Z" fill="white"/>
<path d="M51.7071 31.9805H38.6871C34.9871 31.9805 31.9871 34.9805 31.9871 38.6805V51.7005C31.9871 55.4005 34.9871 58.4005 38.6871 58.4005H51.7071C55.4071 58.4005 58.4071 55.4005 58.4071 51.7005V38.6805C58.4071 34.9805 55.4071 31.9805 51.7071 31.9805ZM45.4171 52.9605C41.0071 52.9605 37.4171 49.3705 37.4171 44.9605C37.4171 40.5505 41.0071 36.9605 45.4171 36.9605C49.8271 36.9605 53.4171 40.5505 53.4171 44.9605C53.4171 49.3705 49.8271 52.9605 45.4171 52.9605ZM53.8871 38.3305C52.8371 38.3305 51.9771 37.4805 51.9771 36.4305C51.9771 35.3805 52.8371 34.5205 53.8871 34.5205C54.9371 34.5205 55.7871 35.3805 55.7871 36.4305C55.7871 37.4805 54.9371 38.3305 53.8871 38.3305Z" fill="white"/>
<path d="M50.547 44.9636C50.547 47.7936 48.247 50.0938 45.417 50.0938C42.597 50.0938 40.297 47.7936 40.297 44.9636C40.297 42.1436 42.597 39.8438 45.417 39.8438C48.247 39.8438 50.547 42.1436 50.547 44.9636Z" fill="white"/>
</svg>
