<svg width="91" height="91" viewBox="0 0 91 91" fill="none" xmlns="http://www.w3.org/2000/svg">
<path d="M45.197 8.34375C24.837 8.34375 8.33704 24.8437 8.33704 45.1937C8.33704 65.5537 24.837 82.0537 45.197 82.0537C65.547 82.0537 82.057 65.5537 82.057 45.1937C82.057 24.8437 65.547 8.34375 45.197 8.34375ZM61.607 51.8538C61.607 57.2438 57.237 61.6137 51.857 61.6137H38.537C33.147 61.6137 28.787 57.2438 28.787 51.8538V38.5438C28.787 33.1538 33.147 28.7837 38.537 28.7837H51.857C57.237 28.7837 61.607 33.1538 61.607 38.5438V51.8538Z" fill="white"/>
<path d="M45.196 3.526C68.173 3.526 86.866 22.219 86.866 45.196C86.866 68.173 68.173 86.866 45.196 86.866C22.219 86.866 3.526 68.173 3.526 45.196C3.526 22.219 22.219 3.526 45.196 3.526ZM45.196 0C20.235 0 0 20.235 0 45.196C0 70.157 20.235 90.392 45.196 90.392C70.157 90.392 90.392 70.157 90.392 45.196C90.392 20.235 70.157 0 45.196 0Z" fill="white"/>
<path d="M39.432 40.056C38.712 40.056 38.184 39.896 37.848 39.576C37.528 39.24 37.368 38.816 37.368 38.304V37.776C37.368 37.264 37.528 36.848 37.848 36.528C38.184 36.192 38.712 36.024 39.432 36.024C40.152 36.024 40.672 36.192 40.992 36.528C41.328 36.848 41.496 37.264 41.496 37.776V38.304C41.496 38.816 41.328 39.24 40.992 39.576C40.672 39.896 40.152 40.056 39.432 40.056ZM37.656 41.4H41.208V54H37.656V41.4ZM44.5232 54V41.4H48.0752V43.536H48.2192C48.4432 42.88 48.8352 42.312 49.3952 41.832C49.9552 41.352 50.7312 41.112 51.7232 41.112C53.0192 41.112 53.9952 41.544 54.6512 42.408C55.3232 43.272 55.6592 44.504 55.6592 46.104V54H52.1072V46.392C52.1072 45.576 51.9792 44.976 51.7232 44.592C51.4672 44.192 51.0112 43.992 50.3552 43.992C50.0672 43.992 49.7872 44.032 49.5152 44.112C49.2432 44.176 48.9952 44.288 48.7712 44.448C48.5632 44.608 48.3952 44.808 48.2672 45.048C48.1392 45.272 48.0752 45.536 48.0752 45.84V54H44.5232Z" fill="white"/>
</svg>
