<svg width="287" height="287" viewBox="0 0 287 287" fill="none" xmlns="http://www.w3.org/2000/svg">
<path fill-rule="evenodd" clip-rule="evenodd" d="M286.268 139.452C286.268 216.454 223.353 278.892 145.742 278.892C121.095 278.892 97.939 272.598 77.809 261.541L0 286.267L25.363 211.456C12.564 190.439 5.205 165.792 5.205 139.452C5.205 62.434 68.12 0 145.742 0C223.352 0 286.268 62.434 286.268 139.452ZM145.742 22.21C80.577 22.21 27.585 74.796 27.585 139.453C27.585 165.094 35.938 188.858 50.089 208.193L35.334 251.725L80.731 237.3C99.382 249.538 121.731 256.683 145.741 256.683C210.879 256.683 263.886 204.093 263.886 139.453C263.887 74.795 210.88 22.21 145.742 22.21ZM216.705 171.57C215.834 170.143 213.536 169.288 210.105 167.578C206.658 165.872 189.712 157.594 186.559 156.461C183.406 155.324 181.092 154.751 178.81 158.167C176.512 161.586 169.908 169.288 167.892 171.57C165.888 173.856 163.884 174.134 160.437 172.425C156.986 170.719 145.881 167.097 132.729 155.468C122.495 146.395 115.581 135.214 113.561 131.795C111.561 128.38 113.362 126.531 115.068 124.825C116.623 123.286 118.519 120.833 120.241 118.845C121.967 116.841 122.539 115.41 123.688 113.128C124.837 110.846 124.265 108.858 123.394 107.148C122.539 105.442 115.645 88.62 112.77 81.77C109.915 74.939 107.041 75.194 105.021 75.194C103.017 75.194 99.299 75.79 99.299 75.79C99.299 75.79 92.393 76.645 89.241 80.064C86.088 83.479 77.19 91.757 77.19 108.563C77.19 125.381 89.523 141.643 91.245 143.909C92.97 146.195 115.069 181.836 150.093 195.521C185.117 209.202 185.117 204.638 191.435 204.061C197.741 203.505 211.812 195.799 214.686 187.815C217.56 179.832 217.56 172.985 216.705 171.57Z" fill="white"/>
</svg>
