<svg width="91" height="91" viewBox="0 0 91 91" fill="none" xmlns="http://www.w3.org/2000/svg">
<path d="M45.196 3.526C68.173 3.526 86.866 22.219 86.866 45.196C86.866 68.173 68.173 86.866 45.196 86.866C22.219 86.866 3.526 68.173 3.526 45.196C3.526 22.219 22.219 3.526 45.196 3.526ZM45.196 0C20.235 0 0 20.235 0 45.196C0 70.157 20.235 90.392 45.196 90.392C70.157 90.392 90.392 70.157 90.392 45.196C90.392 20.235 70.157 0 45.196 0Z" fill="white"/>
<path d="M55.215 43.3555C52.02 43.3615 51.512 46.6745 51.512 46.6745H58.918C58.918 46.1775 58.495 43.3495 55.215 43.3555Z" fill="white"/>
<path d="M39.5101 39.8629C39.5101 39.0159 39.1661 38.2479 38.6131 37.6949C38.0601 37.1419 37.2921 36.7969 36.4451 36.7969H31.2571V42.9329H36.4451C38.1391 42.9329 39.5101 41.5619 39.5101 39.8629Z" fill="white"/>
<path d="M45.196 8.33984C24.841 8.33984 8.33899 24.8408 8.33899 45.1968C8.33899 65.5518 24.84 82.0538 45.196 82.0538C65.552 82.0538 82.053 65.5528 82.053 45.1968C82.053 24.8408 65.552 8.33984 45.196 8.33984ZM39.51 57.2548H26.391V32.7728C26.391 32.7728 35.209 32.4908 38.246 32.7728C41.277 33.0548 44.1 35.5218 44.382 38.4178C44.664 41.3138 42.897 43.9898 40.922 44.5538C43.327 45.6148 45.111 47.0268 45.088 50.0968C45.511 56.0578 39.51 57.2548 39.51 57.2548ZM49.18 34.3948H61.246V37.4288H49.18V34.3948ZM63.953 49.8478H51.511C51.155 51.4458 52.239 52.9978 53.65 53.5168C57.692 54.8318 58.917 51.8688 58.917 51.8688L63.574 51.9198C63.19 54.5958 60.989 57.3278 56.563 57.7058C52.143 58.0788 47.486 55.9168 46.684 49.8478C45.888 43.7798 50.355 39.5008 55.214 39.5008C65.175 40.0638 63.953 49.8478 63.953 49.8478Z" fill="white"/>
<path d="M36.9311 47.0273H31.2581V53.1693H36.9311C38.7881 53.1693 40.2901 51.7923 40.2901 50.0983C40.2901 49.2513 39.9171 48.4833 39.3081 47.9253C38.6981 47.3713 37.8621 47.0273 36.9311 47.0273Z" fill="white"/>
</svg>
