<svg width="91" height="91" viewBox="0 0 91 91" fill="none" xmlns="http://www.w3.org/2000/svg">
<path d="M45.195 8.34375C24.845 8.34375 8.33496 24.8437 8.33496 45.1937C8.33496 65.5537 24.845 82.0537 45.195 82.0537C65.555 82.0537 82.055 65.5537 82.055 45.1937C82.055 24.8437 65.555 8.34375 45.195 8.34375ZM45.355 61.1437C42.685 61.1437 40.045 60.4737 37.675 59.1937L28.885 61.5438L31.235 52.8037C29.905 50.4037 29.205 47.7238 29.205 44.9938C29.205 36.0938 36.455 28.8538 45.355 28.8538C54.255 28.8538 61.505 36.0938 61.505 44.9938C61.505 53.9038 54.255 61.1437 45.355 61.1437Z" fill="white"/>
<path d="M45.196 3.526C68.173 3.526 86.866 22.219 86.866 45.196C86.866 68.173 68.173 86.866 45.196 86.866C22.219 86.866 3.526 68.173 3.526 45.196C3.526 22.219 22.219 3.526 45.196 3.526ZM45.196 0C20.235 0 0 20.235 0 45.196C0 70.157 20.235 90.392 45.196 90.392C70.157 90.392 90.392 70.157 90.392 45.196C90.392 20.235 70.157 0 45.196 0Z" fill="white"/>
<path d="M45.355 31.9023C38.135 31.9023 32.255 37.7723 32.255 44.9923C32.255 47.3823 32.925 49.7323 34.175 51.7823L34.515 52.3423L33.205 57.2223L38.115 55.9123L38.665 56.2423C40.705 57.4523 43.015 58.0923 45.355 58.0923C52.575 58.0923 58.455 52.2223 58.455 44.9923C58.455 37.7723 52.575 31.9023 45.355 31.9023ZM53.045 49.9423C52.565 51.1223 51.345 51.8823 50.125 52.1223C48.945 52.3423 47.985 51.9723 46.895 51.6123C45.925 51.2923 44.995 50.8223 44.125 50.2923C42.385 49.2223 40.885 47.8023 39.685 46.1623C39.315 45.6623 38.975 45.1423 38.655 44.6023C38.235 43.8923 37.865 43.1423 37.675 42.3423C37.595 42.0123 37.555 41.6623 37.545 41.3223C37.535 40.1023 37.995 38.8823 38.955 38.1023C39.515 37.6423 40.335 37.4423 40.965 37.8023C41.645 38.1823 41.995 39.1523 42.315 39.8323C42.555 40.3623 42.835 41.0623 42.735 41.6523C42.635 42.2523 42.165 42.7523 41.785 43.1923C41.535 43.4923 41.495 43.7523 41.705 44.0723C42.945 46.1423 44.675 47.6523 46.935 48.5523C47.235 48.6723 47.475 48.6323 47.675 48.3923C48.065 47.9123 48.445 46.9723 49.045 46.7223C49.835 46.4023 50.695 46.8423 51.365 47.2423C51.985 47.6123 53.015 48.0723 53.185 48.8323C53.265 49.2023 53.195 49.5923 53.045 49.9423Z" fill="white"/>
</svg>
